#!OML:ASF F:\VICON\USERDATA\INSTALL\rory3\rory3.ASF
:FULLY-SPECIFIED
:DEGREES
2555
root 2.55839 9.82534 -5.30929 344.395 -4.1337 359.429
lowerback 29.1864 1.38957 -0.588636
upperback 10.6116 1.744 2.48319
thorax -4.23975 0.774822 2.52568
lowerneck -27.9971 0.102086 -6.59261
upperneck 11.1668 1.93579 3.4599
head 7.81016 0.993635 2.49915
rclavicle 3.37934e-015 1.19271e-014
rhumerus 5.18372 13.699 -80.4438
rradius 71.1371
rwrist 43.0895
rhand -9.23064 -346.402
rfingers 7.12502
rthumb 16.7244 -735.701
lclavicle 3.37934e-015 1.19271e-014
lhumerus 6.18418 -12.9545 87.1698
lradius 63.6798
lwrist -26.0172
lhand -22.5349 14.2465
lfingers 7.12502
lthumb 3.89225 44.1907
rfemur -79.5314 -14.2693 25.4084
rtibia 103.512
rfoot -1.20684 6.05012
rtoes 17.5523
lfemur -79.6523 18.384 -21.9671
ltibia 104.943
lfoot -8.44471 -13.2846
ltoes -4.47559
2556
root 2.56598 9.82644 -5.3014 344.557 -4.18144 359.506
lowerback 29.1087 1.37338 -0.651824
upperback 10.6752 1.70231 2.46096
thorax -4.13115 0.752137 2.55198
lowerneck -28.092 0.179702 -6.49644
upperneck 11.1351 2.02912 3.35879
head 7.81068 1.03221 2.46278
rclavicle -8.34896e-015 -7.95139e-016
rhumerus 5.31711 13.8459 -80.4183
rradius 71.4104
rwrist 43.344
rhand -9.83979 -346.583
rfingers 7.12502
rthumb 16.1379 -735.931
lclavicle -8.34896e-015 -7.95139e-016
lhumerus 6.16629 -12.7777 87.174
lradius 63.9921
lwrist -25.2013
lhand -22.5827 14.4764
lfingers 7.12502
lthumb 3.84612 44.4214
rfemur -79.7537 -14.2437 25.3587
rtibia 103.543
rfoot -1.18778 6.1029
rtoes 17.113
lfemur -79.7943 18.3739 -22.0938
ltibia 105.012
lfoot -8.6213 -13.2286
ltoes -5.06513
2557
root 2.57458 9.82924 -5.29604 344.549 -4.25602 359.345
lowerback 29.194 1.31828 -0.454369
upperback 10.7375 1.68727 2.52386
thorax -4.09662 0.745942 2.51233
lowerneck -27.999 0.224052 -6.50808
upperneck 11.117 2.09454 3.3143
head 7.78731 1.05774 2.4569
rclavicle -5.96354e-015 1.59028e-015
rhumerus 5.3194 14.0141 -80.3286
rradius 71.6582
rwrist 43.3418
rhand -10.4009 -346.785
rfingers 7.12502
rthumb 15.5975 -736.176
lclavicle -5.96354e-015 1.59028e-015
lhumerus 6.02376 -12.5342 87.321
lradius 64.2873
lwrist -24.6914
lhand -22.7257 14.4683
lfingers 7.12502
lthumb 3.70795 44.4158
rfemur -79.6472 -14.2373 25.5004
rtibia 103.5
rfoot -1.20625 6.14107
rtoes 17.1481
lfemur -79.752 18.401 -21.9078
ltibia 105.091
lfoot -8.74055 -13.2136
ltoes -5.1242
2558
root 2.58582 9.83162 -5.29339 344.472 -4.37662 358.906
lowerback 29.4333 1.21316 0.0217586
upperback 10.7073 1.69353 2.66837
thorax -4.23316 0.755059 2.39378
lowerneck -27.5978 0.292146 -6.48064
upperneck 11.0415 2.15702 3.26549
head 7.6982 1.08308 2.43814
rclavicle 1.07344e-014 1.19271e-014
rhumerus 5.11468 14.1887 -80.2687
rradius 71.8967
rwrist 43.1711
rhand -10.8964 -347.051
rfingers 7.12502
rthumb 15.1203 -736.479
lclavicle 1.07344e-014 1.19271e-014
lhumerus 5.63639 -12.2702 87.5332
lradius 64.615
lwrist -24.4392
lhand -22.7932 14.2466
lfingers 7.12502
lthumb 3.64283 44.1952
rfemur -79.3753 -14.2276 25.912
rtibia 103.407
rfoot -1.26034 6.151
rtoes 17.2195
lfemur -79.6938 18.4543 -21.4086
ltibia 105.186
lfoot -8.76878 -13.2707
ltoes -4.9827
2559
root 2.59569 9.8366 -5.29111 344.487 -4.44098 358.726
lowerback 29.4964 1.14812 0.267248
upperback 10.7086 1.68096 2.71656
thorax -4.25519 0.752203 2.30921
lowerneck -27.313 0.34255 -6.42137
upperneck 10.9768 2.194 3.20808
head 7.6322 1.09721 2.40955
rclavicle -2.26615e-014 -2.22639e-014
rhumerus 5.01885 14.3082 -80.2179
rradius 72.1059
rwrist 42.9082
rhand -11.587 -347.397
rfingers 7.12502
rthumb 14.4549 -736.874
lclavicle -2.26615e-014 -2.22639e-014
lhumerus 5.40194 -12.0112 87.6676
lradius 64.8486
lwrist -24.3026
lhand -22.9803 13.9552
lfingers 7.12502
lthumb 3.4621 43.9068
rfemur -79.3004 -14.2398 26.0802
rtibia 103.331
rfoot -1.24375 6.16662
rtoes 17.3046
lfemur -79.6818 18.4322 -21.2211
ltibia 105.219
lfoot -8.77765 -13.2545
ltoes -4.94897
2560
root 2.60341 9.84275 -5.28724 344.557 -4.48484 358.717
lowerback 29.4275 1.09703 0.329441
upperback 10.7751 1.62807 2.7017
thorax -4.14435 0.72691 2.27482
lowerneck -27.3149 0.391999 -6.38435
upperneck 11.0355 2.25169 3.18144
head 7.65021 1.12238 2.40338
rclavicle -3.77691e-015 -9.54166e-015
rhumerus 5.12572 14.462 -80.1862
rradius 72.2569
rwrist 42.4612
rhand -12.3341 -347.703
rfingers 7.12502
rthumb 13.735 -737.23
lclavicle -3.77691e-015 -9.54166e-015
lhumerus 5.39552 -11.6766 87.6596
lradius 64.9818
lwrist -24.0884
lhand -23.1858 13.786
lfingers 7.12502
lthumb 3.26365 43.7408
rfemur -79.3354 -14.2418 26.0913
rtibia 103.282
rfoot -1.21691 6.22578
rtoes 17.1833
lfemur -79.7249 18.4074 -21.2413
ltibia 105.239
lfoot -8.77158 -13.1585
ltoes -4.91348
2561
root 2.60984 9.84693 -5.28312 344.613 -4.55141 358.645
lowerback 29.4271 1.05309 0.39162
upperback 10.8081 1.59 2.74541
thorax -4.10513 0.707746 2.29982
lowerneck -27.2353 0.457182 -6.37386
upperneck 11.074 2.33093 3.17489
head 7.64724 1.15885 2.40978
rclavicle 3.37934e-015 1.82882e-014
rhumerus 5.23573 14.6819 -80.0701
rradius 72.3513
rwrist 41.8057
rhand -13.1356 -347.834
rfingers 7.12502
rthumb 12.9625 -737.412
lclavicle 3.37934e-015 1.82882e-014
lhumerus 5.35596 -11.3483 87.6695
lradius 65.1049
lwrist -23.7393
lhand -23.4479 13.8977
lfingers 7.12502
lthumb 3.01055 43.8561
rfemur -79.3514 -14.2176 26.1726
rtibia 103.263
rfoot -1.21988 6.24578
rtoes 17.2124
lfemur -79.7897 18.4277 -21.1767
ltibia 105.272
lfoot -8.75133 -13.1188
ltoes -4.7301
2562
root 2.61553 9.84992 -5.27821 344.679 -4.56753 358.722
lowerback 29.3971 1.0405 0.331243
upperback 10.8224 1.55577 2.73756
thorax -4.0751 0.689631 2.33714
lowerneck -27.046 0.508684 -6.32083
upperneck 11.0758 2.37453 3.13961
head 7.61774 1.1775 2.3928
rclavicle -1.72943e-014 -1.82882e-014
rhumerus 5.25695 14.819 -79.9753
rradius 72.478
rwrist 41.084
rhand -13.7929 -347.817
rfingers 7.12502
rthumb 12.3288 -737.433
lclavicle -1.72943e-014 -1.82882e-014
lhumerus 5.26963 -11.0573 87.6865
lradius 65.2723
lwrist -23.3416
lhand -23.4907 13.981
lfingers 7.12502
lthumb 2.96922 43.9401
rfemur -79.4467 -14.2314 26.0933
rtibia 103.285
rfoot -1.18917 6.27608
rtoes 17.2695
lfemur -79.8374 18.3972 -21.2889
ltibia 105.292
lfoot -8.7296 -13.0144
ltoes -4.43125
2563
root 2.61963 9.85212 -5.27355 344.745 -4.5865 358.815
lowerback 29.3872 1.05852 0.272582
upperback 10.8179 1.56175 2.72549
thorax -4.07698 0.691636 2.35572
lowerneck -26.9211 0.482764 -6.26491
upperneck 11.1869 2.3243 3.06886
head 7.64048 1.14593 2.35337
rclavicle 5.96354e-016 -1.59028e-015
rhumerus 5.22324 14.821 -79.9
rradius 72.5523
rwrist 40.415
rhand -14.3155 -347.581
rfingers 7.12502
rthumb 11.8249 -737.228
lclavicle 5.96354e-016 -1.59028e-015
lhumerus 5.14929 -10.848 87.7173
lradius 65.4115
lwrist -22.8844
lhand -23.444 13.9144
lfingers 7.12502
lthumb 3.01432 43.8728
rfemur -79.5303 -14.2356 26.002
rtibia 103.296
rfoot -1.15932 6.33953
rtoes 17.3608
lfemur -79.8847 18.3775 -21.422
ltibia 105.308
lfoot -8.73802 -12.904
ltoes -4.11867
